<svg width="249" height="62" viewBox="0 0 249 62" fill="none" xmlns="http://www.w3.org/2000/svg">
<path d="M0.695312 30.8762C0.695312 15.136 13.4552 2.37616 29.1953 2.37616C44.9354 2.37616 57.6953 15.136 57.6953 30.8762C57.6953 46.6163 44.9354 59.3762 29.1953 59.3762C13.4552 59.3762 0.695312 46.6163 0.695312 30.8762Z" fill="url(#paint0_linear_8069_2559)"/>
<mask id="path-2-outside-1_8069_2559" maskUnits="userSpaceOnUse" x="0" y="-0.62384" width="45" height="63" fill="black">
<rect fill="white" y="-0.62384" width="45" height="63"/>
<path d="M17.7957 57.3361C16.3935 58.5883 14.5896 59.3762 12.3197 59.3762H7.15646H3.35959H0C6.22298 59.3762 8.94737 58.0435 10.1483 51.5848L15.2098 9.55242C16.0832 5.65674 19.4677 2.37616 24.1622 2.37616H30.7054H35.941C31.1373 2.37616 27.6437 6.06681 26.8794 9.55242L22.0725 44.8965C21.4669 49.3491 21.1475 54.3431 17.7957 57.3361Z"/>
</mask>
<path d="M17.7957 57.3361C16.3935 58.5883 14.5896 59.3762 12.3197 59.3762H7.15646H3.35959H0C6.22298 59.3762 8.94737 58.0435 10.1483 51.5848L15.2098 9.55242C16.0832 5.65674 19.4677 2.37616 24.1622 2.37616H30.7054H35.941C31.1373 2.37616 27.6437 6.06681 26.8794 9.55242L22.0725 44.8965C21.4669 49.3491 21.1475 54.3431 17.7957 57.3361Z" fill="#002A52"/>
<path d="M19.1279 58.8279C18.2398 57.8334 17.3517 56.8388 16.4636 55.8443C15.3221 56.8706 13.913 57.3809 12.3197 57.3762C11.2232 57.3762 10.1268 57.3762 9.03029 57.3762C7.14006 57.3762 5.24983 57.3762 3.35959 57.3762V61.3762C4.62522 61.3762 5.89084 61.3762 7.15646 61.3762V57.3762C4.77097 57.3762 2.38549 57.3762 0 57.3762V61.3762C2.48289 61.3166 5.3358 61.408 8.13373 59.5201C10.9141 57.4825 11.6168 54.4127 12.1146 51.9504L12.134 51.8239C13.8211 37.8131 15.5083 23.8023 17.1955 9.79153L17.1614 9.98995C17.8471 6.76615 20.8412 4.29718 24.1622 4.37616C25.8082 4.37616 27.4542 4.37616 29.1002 4.37616C29.6353 4.37616 30.1703 4.37616 30.7054 4.37616C34.8775 4.37616 39.0496 4.37616 43.2217 4.37616C43.601 4.37616 43.9803 4.37616 44.3596 4.37616V0.37616C42.9463 0.37616 41.5202 0.37616 40.1005 0.37616C39.3902 0.37616 38.6793 0.37616 37.9692 0.37616C37.6119 0.37616 37.2603 0.37616 36.9061 0.37616C36.7213 0.37616 36.5461 0.37616 36.3712 0.37616C36.2772 0.37616 36.1942 0.37616 36.1032 0.37616C36.0681 0.37616 36.0073 0.37616 35.9712 0.37616C35.9591 0.37616 35.9173 0.37616 35.9043 0.37616C35.9022 0.37616 35.9004 0.37616 35.8987 0.37616C35.898 0.37616 35.8974 0.37616 35.8905 0.37616C35.8894 0.37616 35.8886 0.37616 35.888 0.37616C35.8877 0.37616 35.8875 0.37616 35.8874 0.37616C35.8873 0.37616 35.8873 0.37616 35.8872 0.37616C35.8872 0.37616 35.8872 0.37616 35.8872 0.37616C35.8872 0.37616 35.8872 0.37616 35.8872 0.37616C35.8872 0.37616 35.8872 0.37616 35.8872 0.37616C35.8872 0.37616 35.8872 0.37616 35.8872 0.37616C35.8872 0.37616 35.8872 0.37616 35.8872 0.37616C35.8872 0.37616 35.8872 0.37616 35.8872 0.37616C35.8872 0.37616 35.8872 0.37616 35.8872 0.37616C35.8872 0.37616 35.8872 0.37616 35.8872 0.37616C35.8872 0.37616 35.8872 0.37616 35.8872 0.37616C35.8872 -1.84606 35.8872 6.59838 35.8872 4.37616C35.8872 4.37616 35.8872 4.37616 35.8872 4.37616C35.8872 4.37616 35.8872 4.37616 35.8872 4.37616C35.8872 4.37616 35.8872 4.37616 35.8872 4.37616C35.8872 4.37616 35.8883 4.37616 35.8906 4.37616C35.8943 4.37616 35.8967 4.37616 35.9014 4.37616C35.9103 4.37616 35.9234 4.37616 35.941 4.37616V0.37616C30.7945 0.345931 26.1205 4.055 24.9258 9.12409L24.8977 9.28289C23.2954 21.0643 21.6931 32.8456 20.0907 44.627C19.8991 46.0406 19.7448 47.4096 19.5311 48.7221C19.0735 51.621 18.2511 54.2864 16.4636 55.8443C17.3517 56.8388 18.2398 57.8334 19.1279 58.8279C22.058 56.2109 22.966 52.4869 23.4793 49.3639C23.7133 47.9222 23.8706 46.5159 24.0542 45.1661C25.6566 33.3847 27.2589 21.6033 28.8612 9.82195L28.833 9.98075C29.5133 6.92372 32.7038 4.28851 35.941 4.37616V0.37616C35.9234 0.37616 35.9103 0.37616 35.9014 0.37616C35.8967 0.37616 35.8943 0.37616 35.8906 0.37616C35.8883 0.37616 35.8872 0.37616 35.8872 0.37616C35.8872 0.37616 35.8872 0.37616 35.8872 0.37616C35.8872 0.37616 35.8872 0.37616 35.8872 0.37616C35.8872 0.37616 35.8872 0.37616 35.8872 0.37616C35.8872 -1.84606 35.8872 6.59838 35.8872 4.37616C35.8872 4.37616 35.8872 4.37616 35.8872 4.37616C35.8872 4.37616 35.8872 4.37616 35.8872 4.37616C35.8872 4.37616 35.8872 4.37616 35.8872 4.37616C35.8872 4.37616 35.8872 4.37616 35.8872 4.37616C35.8872 4.37616 35.8872 4.37616 35.8872 4.37616C35.8872 4.37616 35.8872 4.37616 35.8872 4.37616C35.8872 4.37616 35.8872 4.37616 35.8872 4.37616C35.8872 4.37616 35.8872 4.37616 35.8872 4.37616C35.8872 4.37616 35.8872 4.37616 35.8872 4.37616C35.8873 4.37616 35.8873 4.37616 35.8874 4.37616C35.8875 4.37616 35.8877 4.37616 35.888 4.37616C35.8886 4.37616 35.8894 4.37616 35.8905 4.37616C35.8974 4.37616 35.898 4.37616 35.8987 4.37616C35.9004 4.37616 35.9022 4.37616 35.9043 4.37616C35.9173 4.37616 35.9591 4.37616 35.9712 4.37616C36.0073 4.37616 36.0681 4.37616 36.1032 4.37616C36.1942 4.37616 36.2772 4.37616 36.3712 4.37616C36.5461 4.37616 36.7213 4.37616 36.9061 4.37616C37.2603 4.37616 37.6119 4.37616 37.9692 4.37616C38.6793 4.37616 39.3902 4.37616 40.1005 4.37616C41.5202 4.37616 42.9463 4.37616 44.3596 4.37616V0.37616C43.9803 0.37616 43.601 0.37616 43.2217 0.37616C39.0496 0.37616 34.8775 0.37616 30.7054 0.37616C30.1703 0.37616 29.6353 0.37616 29.1002 0.37616C27.4542 0.37616 25.8082 0.37616 24.1622 0.37616C19.0981 0.229301 14.2611 4.1683 13.2583 9.11489L13.2242 9.31331C11.537 23.3241 9.84982 37.3349 8.16264 51.3457L8.182 51.2192C7.78189 53.4169 7.06495 55.4237 5.8104 56.264C4.56883 57.184 2.28604 57.379 0 57.3762L0 61.3762C2.38549 61.3762 4.77097 61.3762 7.15646 61.3762V57.3762C5.89084 57.3762 4.62522 57.3762 3.35959 57.3762V61.3762C5.24983 61.3762 7.14006 61.3762 9.03029 61.3762C10.1268 61.3762 11.2232 61.3762 12.3197 61.3762C14.714 61.4129 17.3141 60.498 19.1279 58.8279ZM16.4636 55.8443L19.1279 58.8279L16.4636 55.8443Z" fill="white" mask="url(#path-2-outside-1_8069_2559)"/>
<path d="M72.1181 33.6291C71.3512 33.0477 71.1657 32.4601 71.5615 31.8664L72.9902 29.7141C73.4603 29.009 74.1468 28.9719 75.0498 29.6027C75.7425 30.0851 76.6455 30.5861 77.7588 31.1057C78.8844 31.6128 80.0657 31.8664 81.3027 31.8664C82.1686 31.8664 83.0036 31.7674 83.8076 31.5695C84.6116 31.3716 85.2239 30.9881 85.6445 30.4191C86.0651 29.8501 86.2754 29.176 86.2754 28.3967C86.2754 27.84 86.1826 27.3514 85.997 26.9308C85.8115 26.5103 85.5084 26.1639 85.0879 25.8918C84.6673 25.6196 84.2344 25.3908 83.789 25.2053C83.0097 24.8836 82.0263 24.5682 80.8388 24.259C79.6637 23.9374 78.501 23.5539 77.3506 23.1086C76.3239 22.7127 75.3838 22.1685 74.5303 21.4758C73.6767 20.7831 73.015 20.0038 72.5449 19.1379C72.0748 18.272 71.8398 17.1154 71.8398 15.6682C71.8398 13.9488 72.3965 12.4767 73.5097 11.2521C74.623 10.0275 75.9033 9.24205 77.3506 8.89569C78.7978 8.54934 80.2575 8.37616 81.7295 8.37616C83.1891 8.37616 84.692 8.59882 86.2383 9.04413C87.7969 9.48944 88.972 10.0461 89.7637 10.7141C90.5429 11.3696 90.7347 11.9634 90.3388 12.4953L88.8359 14.5178C88.3288 15.2105 87.6484 15.2661 86.7949 14.6848C86.2506 14.3137 85.5023 13.8993 84.5498 13.4416C83.6097 12.9839 82.6263 12.7551 81.5996 12.7551C80.8698 12.7551 80.1956 12.8169 79.5771 12.9406C78.971 13.0643 78.4329 13.3612 77.9629 13.8312C77.4928 14.3013 77.2578 14.8827 77.2578 15.5754C77.2578 16.2433 77.431 16.7876 77.7773 17.2082C78.1237 17.6164 78.5071 17.9256 78.9277 18.1359C79.3483 18.3338 79.775 18.5008 80.208 18.6369C81.5439 19.0698 82.7376 19.4533 83.789 19.7873C84.8405 20.1089 85.8115 20.4676 86.7021 20.8635C87.9391 21.4201 88.8854 21.9767 89.541 22.5334C90.1966 23.09 90.7347 23.8508 91.1553 24.8156C91.5882 25.7805 91.8047 26.9308 91.8047 28.2668C91.8047 30.246 91.1738 31.8849 89.9121 33.1838C88.6504 34.4702 87.2464 35.299 85.7002 35.6701C84.1663 36.0536 82.6696 36.2453 81.2099 36.2453C79.0576 36.2453 77.3073 36.035 75.959 35.6144C74.6107 35.2062 73.3304 34.5445 72.1181 33.6291Z" fill="black"/>
<path d="M97.3711 35.6144C96.5052 35.6144 96.0722 35.1506 96.0722 34.2228V10.3986C96.0722 9.47089 96.5052 9.00702 97.3711 9.00702H100.191C101.057 9.00702 101.49 9.47089 101.49 10.3986V34.2228C101.49 35.1506 101.057 35.6144 100.191 35.6144H97.3711Z" fill="black"/>
<path d="M108.727 35.6144C107.861 35.6144 107.428 35.1506 107.428 34.2228V10.3986C107.428 9.47089 107.861 9.00702 108.727 9.00702H111.473C112.536 9.00702 113.34 9.43996 113.885 10.3058L123.348 25.5021H123.478C123.416 24.7599 123.385 24.0178 123.385 23.2756V10.3986C123.385 9.47089 123.818 9.00702 124.684 9.00702H127.504C128.37 9.00702 128.803 9.47089 128.803 10.3986V34.2228C128.803 35.1506 128.37 35.6144 127.504 35.6144H124.943C123.88 35.6144 123.076 35.1815 122.531 34.3156L112.883 18.841H112.753C112.815 19.5832 112.846 20.3254 112.846 21.0676V34.2228C112.846 35.1506 112.413 35.6144 111.547 35.6144H108.727Z" fill="black"/>
<path d="M136.039 35.6144C135.173 35.6144 134.74 35.1506 134.74 34.2228V10.3986C134.74 9.47089 135.173 9.00702 136.039 9.00702H151.959C152.887 9.00702 153.351 9.40904 153.351 10.2131V12.4025C153.351 13.2066 152.887 13.6086 151.959 13.6086H140.158V19.509H150.976C151.903 19.509 152.367 19.911 152.367 20.715V22.9045C152.367 23.7085 151.903 24.1105 150.976 24.1105H140.158V31.0129H152.553C153.48 31.0129 153.944 31.4149 153.944 32.2189V34.4084C153.944 35.2124 153.48 35.6144 152.553 35.6144H136.039Z" fill="black"/>
<path d="M159.789 35.6144C158.923 35.6144 158.49 35.1506 158.49 34.2228V10.3986C158.49 9.47089 158.923 9.00702 159.789 9.00702H168.38C172.202 9.00702 174.992 9.60077 176.748 10.7883C178.505 11.9634 179.383 13.8807 179.383 16.5402C179.383 18.5194 178.672 20.0965 177.249 21.2717C175.826 22.4468 174.02 23.2261 171.831 23.6096V23.6467C173.019 24.092 173.915 24.7105 174.521 25.5021C175.128 26.2938 175.622 26.9865 176.006 27.5803L180.088 34.0187C180.768 35.0825 180.533 35.6144 179.383 35.6144H176.154C175.474 35.6144 174.917 35.2495 174.484 34.5197L170.736 28.2668C170.328 27.5988 169.58 26.869 168.491 26.0773C167.415 25.2733 166.345 24.8713 165.281 24.8713H163.908V34.2228C163.908 35.1506 163.475 35.6144 162.609 35.6144H159.789ZM163.908 20.2697H167.229C169.703 20.2697 171.46 19.9914 172.499 19.4348C173.55 18.8657 174.076 17.9689 174.076 16.7443C174.076 15.4084 173.569 14.5425 172.555 14.1467C171.553 13.7385 170.075 13.5344 168.12 13.5344H163.908V20.2697Z" fill="black"/>
<path d="M183.613 22.3107C183.613 18.0432 184.727 14.6538 186.953 12.1428C189.18 9.63169 192.334 8.37616 196.416 8.37616C198.878 8.37616 200.807 8.69159 202.205 9.32245C203.615 9.95331 204.852 10.9305 205.916 12.2541C206.559 13.0581 206.541 13.6828 205.86 14.1281L203.745 15.5012C203.127 15.9094 202.465 15.73 201.76 14.9631C201.178 14.3322 200.442 13.8065 199.552 13.3859C198.661 12.9654 197.678 12.7551 196.602 12.7551C194.004 12.7551 192.155 13.5777 191.054 15.2228C189.953 16.8557 189.402 19.2183 189.402 22.3107C189.402 25.4032 189.953 27.772 191.054 29.4172C192.155 31.05 194.004 31.8664 196.602 31.8664C197.863 31.8664 198.952 31.7427 199.867 31.4953C200.783 31.2355 201.648 30.7717 202.465 30.1037V26.7824H198.438C197.511 26.7824 197.047 26.3804 197.047 25.5764V23.3869C197.047 22.5829 197.511 22.1808 198.438 22.1808H206.491C207.419 22.1808 207.883 22.5829 207.883 23.3869V32.8127C206.151 34.0868 204.401 34.9774 202.632 35.4846C200.875 35.9917 198.803 36.2453 196.416 36.2453C192.396 36.2453 189.254 34.9898 186.99 32.4787C184.739 29.9676 183.613 26.5783 183.613 22.3107Z" fill="black"/>
<path d="M214.229 35.6144C213.363 35.6144 212.93 35.1506 212.93 34.2228V10.3986C212.93 9.47089 213.363 9.00702 214.229 9.00702H217.049C217.915 9.00702 218.348 9.47089 218.348 10.3986V34.2228C218.348 35.1506 217.915 35.6144 217.049 35.6144H214.229Z" fill="black"/>
<path d="M223.45 35.6144C222.56 35.6144 222.269 35.2062 222.578 34.3898L231.67 10.5099C232.053 9.508 232.635 9.00702 233.414 9.00702H236.012C236.791 9.00702 237.372 9.508 237.756 10.5099L246.848 34.3898C247.157 35.2062 246.866 35.6144 245.976 35.6144H243.025C242.209 35.6144 241.64 35.1877 241.318 34.3342L239.426 29.343H234.662H230L228.107 34.3342C227.786 35.1877 227.217 35.6144 226.4 35.6144H223.45ZM230 29.343C230 29.343 233.258 29.343 234.662 29.343C236.066 29.343 239.426 29.343 239.426 29.343L235.418 18.841C235.146 18.1483 234.979 17.6473 234.917 17.3381C234.867 17.0165 234.812 16.5464 234.75 15.9279H234.676C234.614 16.5464 234.552 17.0165 234.49 17.3381C234.441 17.6473 234.28 18.1483 234.008 18.841L230 29.343Z" fill="black"/>
<path d="M133.865 54.1688C133.573 53.9028 133.557 53.6339 133.817 53.3623L134.758 52.3775C135.067 52.0549 135.397 52.0379 135.747 52.3265C136.016 52.5473 136.383 52.7765 136.846 53.0142C137.317 53.2462 137.846 53.3623 138.432 53.3623C138.842 53.3623 139.249 53.317 139.655 53.2264C140.06 53.1359 140.397 52.9604 140.666 52.7001C140.935 52.4397 141.117 52.1313 141.213 51.7747C141.281 51.52 141.297 51.2965 141.26 51.104C141.224 50.9116 141.123 50.7531 140.957 50.6286C140.791 50.5041 140.614 50.3994 140.426 50.3145C140.096 50.1673 139.669 50.023 139.145 49.8815C138.627 49.7344 138.124 49.5589 137.633 49.3552C137.196 49.1741 136.817 48.925 136.498 48.6081C136.178 48.2911 135.96 47.9346 135.844 47.5384C135.727 47.1422 135.758 46.613 135.935 45.9508C136.146 45.1641 136.59 44.4906 137.268 43.9303C137.945 43.37 138.648 43.0106 139.376 42.8521C140.104 42.6937 140.816 42.6144 141.514 42.6144C142.205 42.6144 142.89 42.7163 143.568 42.9201C144.251 43.1238 144.74 43.3785 145.033 43.6841C145.322 43.9841 145.34 44.2558 145.087 44.4991L144.127 45.4245C143.802 45.7414 143.473 45.7669 143.14 45.5009C142.927 45.3311 142.624 45.1415 142.229 44.9321C141.839 44.7227 141.402 44.618 140.915 44.618C140.57 44.618 140.243 44.6463 139.935 44.7029C139.632 44.7595 139.341 44.8953 139.061 45.1104C138.78 45.3254 138.598 45.5915 138.513 45.9084C138.431 46.214 138.446 46.4631 138.559 46.6555C138.673 46.8423 138.817 46.9837 138.99 47.08C139.165 47.1705 139.347 47.2469 139.535 47.3092C140.115 47.5073 140.633 47.6827 141.09 47.8355C141.549 47.9827 141.965 48.1468 142.338 48.3279C142.856 48.5826 143.236 48.8373 143.478 49.092C143.721 49.3467 143.882 49.6948 143.963 50.1362C144.05 50.5777 144.011 51.104 143.848 51.7153C143.605 52.6208 143.105 53.3707 142.348 53.965C141.593 54.5536 140.826 54.9328 140.048 55.1026C139.275 55.2781 138.542 55.3658 137.851 55.3658C136.831 55.3658 136.028 55.2696 135.441 55.0771C134.852 54.8904 134.327 54.5876 133.865 54.1688Z" fill="#1D7ABE"/>
<path d="M145.949 48.9901C146.472 47.0375 147.409 45.4867 148.76 44.3378C150.111 43.1889 151.753 42.6144 153.687 42.6144C155.62 42.6144 156.955 43.1889 157.69 44.3378C158.425 45.4867 158.531 47.0375 158.008 48.9901C157.484 50.9427 156.547 52.4935 155.196 53.6424C153.846 54.7913 152.203 55.3658 150.27 55.3658C148.336 55.3658 147.002 54.7913 146.267 53.6424C145.532 52.4935 145.426 50.9427 145.949 48.9901ZM148.691 48.9901C148.312 50.405 148.282 51.4889 148.602 52.2416C148.929 52.9887 149.664 53.3623 150.807 53.3623C151.949 53.3623 152.881 52.9887 153.603 52.2416C154.332 51.4889 154.886 50.405 155.265 48.9901C155.644 47.5752 155.67 46.4942 155.343 45.7471C155.023 44.9944 154.292 44.618 153.15 44.618C152.007 44.618 151.071 44.9944 150.342 45.7471C149.621 46.4942 149.07 47.5752 148.691 48.9901Z" fill="#1D7ABE"/>
<path d="M159.154 55.0771C158.744 55.0771 158.595 54.8649 158.709 54.4404L161.63 43.5398C161.744 43.1153 162.006 42.9031 162.416 42.9031H163.84C164.191 42.9031 164.31 43.1153 164.196 43.5398L161.669 52.9717H166.793C167.233 52.9717 167.403 53.1557 167.304 53.5236L167.036 54.5253C166.937 54.8932 166.668 55.0771 166.229 55.0771H159.154Z" fill="#1D7ABE"/>
<path d="M168.67 50.0089L170.448 43.37C170.532 43.0587 170.779 42.9031 171.189 42.9031H172.525C172.935 42.9031 173.098 43.0587 173.015 43.37L171.259 49.924C170.849 51.4521 170.824 52.4086 171.184 52.7935C171.551 53.1727 172.028 53.3623 172.614 53.3623C173.2 53.3623 173.775 53.1727 174.339 52.7935C174.911 52.4086 175.402 51.4521 175.811 49.924L177.568 43.37C177.651 43.0587 177.898 42.9031 178.308 42.9031H179.644C180.054 42.9031 180.217 43.0587 180.134 43.37L178.355 50.0089C177.824 51.9898 177.018 53.3792 175.937 54.1773C174.858 54.9696 173.571 55.3658 172.077 55.3658C170.583 55.3658 169.508 54.9696 168.853 54.1773C168.2 53.3792 168.139 51.9898 168.67 50.0089Z" fill="#1D7ABE"/>
<path d="M180.79 48.9901C181.313 47.0375 182.242 45.4867 183.575 44.3378C184.908 43.1889 186.541 42.6144 188.475 42.6144C189.588 42.6144 190.487 42.7814 191.171 43.1153C191.855 43.4492 192.27 43.9332 192.417 44.567C192.515 44.9859 192.404 45.2689 192.084 45.416L190.884 45.9593C190.463 46.1518 190.187 46.0442 190.056 45.6367C189.973 45.3764 189.752 45.1415 189.392 44.9321C189.038 44.7227 188.583 44.618 188.026 44.618C186.796 44.618 185.833 44.9944 185.14 45.7471C184.447 46.4942 183.911 47.5752 183.532 48.9901C183.153 50.405 183.109 51.4889 183.399 52.2416C183.691 52.9887 184.453 53.3623 185.683 53.3623C186.345 53.3623 186.941 53.2179 187.469 52.9293C188.003 52.6406 188.393 52.3661 188.639 52.1058C189.04 51.6813 189.373 51.5738 189.639 51.7832L190.512 52.4624C190.749 52.6491 190.703 52.9321 190.373 53.3113C189.881 53.8773 189.168 54.3612 188.235 54.763C187.301 55.1649 186.242 55.3658 185.058 55.3658C183.154 55.3658 181.834 54.7913 181.099 53.6424C180.37 52.4935 180.267 50.9427 180.79 48.9901Z" fill="#1D7ABE"/>
<path d="M192.888 55.0771C192.478 55.0771 192.329 54.8649 192.443 54.4404L195.364 43.5398C195.478 43.1153 195.74 42.9031 196.15 42.9031H197.486C197.896 42.9031 198.044 43.1153 197.93 43.5398L195.009 54.4404C194.896 54.8649 194.634 55.0771 194.224 55.0771H192.888Z" fill="#1D7ABE"/>
<path d="M198.632 48.9901C199.155 47.0375 200.092 45.4867 201.443 44.3378C202.794 43.1889 204.436 42.6144 206.37 42.6144C208.303 42.6144 209.638 43.1889 210.373 44.3378C211.108 45.4867 211.214 47.0375 210.691 48.9901C210.167 50.9427 209.23 52.4935 207.88 53.6424C206.529 54.7913 204.886 55.3658 202.953 55.3658C201.019 55.3658 199.685 54.7913 198.95 53.6424C198.215 52.4935 198.109 50.9427 198.632 48.9901ZM201.374 48.9901C200.995 50.405 200.965 51.4889 201.285 52.2416C201.612 52.9887 202.347 53.3623 203.49 53.3623C204.632 53.3623 205.564 52.9887 206.286 52.2416C207.015 51.4889 207.569 50.405 207.948 48.9901C208.327 47.5752 208.353 46.4942 208.026 45.7471C207.707 44.9944 206.975 44.618 205.833 44.618C204.69 44.618 203.754 44.9944 203.025 45.7471C202.304 46.4942 201.753 47.5752 201.374 48.9901Z" fill="#1D7ABE"/>
<path d="M211.837 55.0771C211.427 55.0771 211.279 54.8649 211.392 54.4404L214.313 43.5398C214.427 43.1153 214.689 42.9031 215.099 42.9031H216.4C216.904 42.9031 217.231 43.1012 217.383 43.4974L220.002 50.4503H220.064C220.126 50.1107 220.202 49.7712 220.293 49.4316L221.872 43.5398C221.985 43.1153 222.247 42.9031 222.657 42.9031H223.993C224.404 42.9031 224.552 43.1153 224.438 43.5398L221.517 54.4404C221.404 54.8649 221.142 55.0771 220.731 55.0771H219.519C219.015 55.0771 218.687 54.8791 218.535 54.4829L215.862 47.4026H215.8C215.739 47.7421 215.662 48.0817 215.571 48.4213L213.959 54.4404C213.845 54.8649 213.583 55.0771 213.173 55.0771H211.837Z" fill="#1D7ABE"/>
<path d="M224.774 55.0771C224.364 55.0771 224.216 54.8649 224.33 54.4404L227.251 43.5398C227.364 43.1153 227.626 42.9031 228.036 42.9031H235.577C236.017 42.9031 236.187 43.087 236.089 43.4549L235.82 44.4567C235.722 44.8246 235.453 45.0085 235.013 45.0085H229.423L228.7 47.7082H233.824C234.264 47.7082 234.434 47.8921 234.335 48.26L234.067 49.2618C233.968 49.6297 233.699 49.8136 233.26 49.8136H228.136L227.29 52.9717H233.161C233.6 52.9717 233.771 53.1557 233.672 53.5236L233.404 54.5253C233.305 54.8932 233.036 55.0771 232.597 55.0771H224.774Z" fill="#1D7ABE"/>
<path d="M235.802 54.1688C235.51 53.9028 235.494 53.6339 235.754 53.3623L236.695 52.3775C237.004 52.0549 237.334 52.0379 237.684 52.3265C237.953 52.5473 238.32 52.7765 238.783 53.0142C239.254 53.2462 239.783 53.3623 240.369 53.3623C240.779 53.3623 241.186 53.317 241.592 53.2264C241.997 53.1359 242.334 52.9604 242.603 52.7001C242.872 52.4397 243.054 52.1313 243.149 51.7747C243.218 51.52 243.234 51.2965 243.197 51.104C243.161 50.9116 243.06 50.7531 242.894 50.6286C242.728 50.5041 242.551 50.3994 242.363 50.3145C242.033 50.1673 241.606 50.023 241.082 49.8815C240.564 49.7344 240.061 49.5589 239.57 49.3552C239.132 49.1741 238.754 48.925 238.435 48.6081C238.115 48.2911 237.897 47.9346 237.781 47.5384C237.664 47.1422 237.695 46.613 237.872 45.9508C238.083 45.1641 238.527 44.4906 239.205 43.9303C239.882 43.37 240.585 43.0106 241.313 42.8521C242.041 42.6937 242.753 42.6144 243.451 42.6144C244.142 42.6144 244.827 42.7163 245.505 42.9201C246.188 43.1238 246.677 43.3785 246.97 43.6841C247.258 43.9841 247.276 44.2558 247.024 44.4991L246.064 45.4245C245.739 45.7414 245.41 45.7669 245.077 45.5009C244.864 45.3311 244.561 45.1415 244.166 44.9321C243.776 44.7227 243.339 44.618 242.852 44.618C242.507 44.618 242.18 44.6463 241.872 44.7029C241.569 44.7595 241.278 44.8953 240.998 45.1104C240.717 45.3254 240.535 45.5915 240.45 45.9084C240.368 46.214 240.383 46.4631 240.496 46.6555C240.61 46.8423 240.754 46.9837 240.927 47.08C241.102 47.1705 241.284 47.2469 241.472 47.3092C242.052 47.5073 242.57 47.6827 243.027 47.8355C243.486 47.9827 243.902 48.1468 244.275 48.3279C244.793 48.5826 245.173 48.8373 245.415 49.092C245.658 49.3467 245.819 49.6948 245.9 50.1362C245.987 50.5777 245.948 51.104 245.785 51.7153C245.542 52.6208 245.042 53.3707 244.285 53.965C243.53 54.5536 242.763 54.9328 241.985 55.1026C241.212 55.2781 240.479 55.3658 239.788 55.3658C238.768 55.3658 237.965 55.2696 237.378 55.0771C236.789 54.8904 236.264 54.5876 235.802 54.1688Z" fill="#1D7ABE"/>
<defs>
<linearGradient id="paint0_linear_8069_2559" x1="29.1953" y1="2.37616" x2="29.1953" y2="59.3762" gradientUnits="userSpaceOnUse">
<stop stop-color="#1D7ABE"/>
<stop offset="1" stop-color="#0FAADC"/>
</linearGradient>
</defs>
</svg>
